<svg xmlns="http://www.w3.org/2000/svg" height="75" width="75"><path d="M.2.2h74.6v74.6H.2z" fill="#4a3827" stroke="#4a3827" stroke-width=".4"/><g fill="#46c258" stroke="#ec2e32"><path d="M0 50h75M0 25h75"/><path d="M25 75V0m25 75V0"/></g><g stroke-width=".4" fill="none" stroke="#f3f274"><path d="M0 66.25h75M0 57.917h75M0 41.25h75M0 32.918h75M0 16.252h75M0 7.92h75"/><path d="M8.1 75V0m8.334 75V0M33.1 75V0m8.332 75V0M58.1 75V0m8.33 75V0"/></g><g fill="#46c258" stroke="#46c258" stroke-width=".25"><path d="M66.228.125h8.645l-.124 7.88L8.287 74.75l-8.16.124.124-8.83z"/><path d="M74.875 66.228v8.645l-7.88-.124L.25 8.287.127.127l8.83.124z"/><animate 
attributeType="CSS" attributeName="opacity" 
from="0" to="1" dur="3s" repeatCount="indefinite" 
/></g></svg>