<svg xmlns="http://www.w3.org/2000/svg" width="50" height="50" viewBox="0 0 13.23 13.23"><style><![CDATA[.B{font-family:Arial}.C{word-spacing:0px}.D{writing-mode:lr-tb}.E{text-anchor:middle}.F{font-size:.96px}.G{font-size:.98px}.H{font-size:.97px}.I{font-size:.99px}]]></style><path d="M.13.12h13v13h-13z" fill="#bfb573" stroke="#000" stroke-width=".1"/><g stroke="#192855" fill="#ff0" stroke-width=".09"><path d="M3.07.1v13.08M1.6.1v13.08M7.43.1v13.08M5.97.1v13.08M11.8.1v13.08M10.33.1v13.08"/><path d="M.08 10.26h13.08M.08 11.72h13.08M.08 5.9h13.08M.08 7.35h13.08M.08 1.54h13.08M.08 3h13.08"/></g><g stroke="#992f21" fill="#ff0" stroke-width=".2"><path d="M4.52.1v13.08M8.88.1v13.08"/><path d="M.08 8.73h13.08M.08 4.37h13.08"/></g><text xml:space="preserve" x="12.46" y="284.94" letter-spacing="0" class="B C D E F"><tspan x="12.46" y="1.17">8</tspan></text><text xml:space="preserve" x="0.81" y="284.95" letter-spacing="0" class="B C D E G"><tspan x="0.81" y="1.18">2</tspan></text><text xml:space="preserve" x="11.04" y="284.94" letter-spacing="0" class="B C D E F"><tspan x="11.04" y="1.17">3</tspan></text><text xml:space="preserve" x="2.33" y="284.94" letter-spacing="0" class="B C D E F"><tspan x="2.33" y="1.17">6</tspan></text><text xml:space="preserve" x="3.78" y="284.94" letter-spacing="0" class="B C D E F"><tspan x="3.78" y="1.17">9</tspan></text><text xml:space="preserve" x="5.21" y="284.95" letter-spacing="0" class="B C D E H"><tspan x="5.21" y="1.18">1</tspan></text><text xml:space="preserve" x="6.68" y="284.95" letter-spacing="0" class="B C D E G"><tspan x="6.68" y="1.18">4</tspan></text><text xml:space="preserve" x="8.1" y="284.94" letter-spacing="0" class="B C D E G"><tspan x="8.1" y="1.17">5</tspan></text><text xml:space="preserve" x="9.59" y="284.95" letter-spacing="0" class="B C D E I"><tspan x="9.59" y="1.18">7</tspan></text><text y="286.38" x="12.4" xml:space="preserve" letter-spacing="0" class="B C D E F"><tspan x="12.4" y="2.61">4</tspan></text><text y="286.39" x="0.83" xml:space="preserve" letter-spacing="0" class="B C D E G"><tspan x="0.83" y="2.62">8</tspan></text><text y="286.38" x="11" xml:space="preserve" letter-spacing="0" class="B C D E F"><tspan x="11" y="2.61">1</tspan></text><text y="286.38" x="2.33" xml:space="preserve" letter-spacing="0" class="B C D E F"><tspan x="2.33" y="2.61">7</tspan></text><text y="286.38" x="3.8" xml:space="preserve" letter-spacing="0" class="B C D E F"><tspan x="3.8" y="2.61">3</tspan></text><text y="286.39" x="5.22" xml:space="preserve" letter-spacing="0" class="B C D E H"><tspan x="5.22" y="2.62">9</tspan></text><text y="286.39" x="6.7" xml:space="preserve" letter-spacing="0" class="B C D E G"><tspan x="6.7" y="2.62">2</tspan></text><text y="286.38" x="8.15" xml:space="preserve" letter-spacing="0" class="B C D E G"><tspan x="8.15" y="2.61">6</tspan></text><text y="286.39" x="9.59" xml:space="preserve" letter-spacing="0" class="B C D E I"><tspan x="9.59" y="2.62">5</tspan></text><text xml:space="preserve" x="12.4" y="287.79" letter-spacing="0" class="B C D E F"><tspan x="12.4" y="4.02">2</tspan></text><text xml:space="preserve" x="0.83" y="287.8" letter-spacing="0" class="B C D E G"><tspan x="0.83" y="4.03">4</tspan></text><text xml:space="preserve" x="11" y="287.79" letter-spacing="0" class="B C D E F"><tspan x="11" y="4.02">9</tspan></text><text xml:space="preserve" x="2.33" y="287.79" letter-spacing="0" class="B C D E F"><tspan x="2.33" y="4.02">5</tspan></text><text xml:space="preserve" x="3.8" y="287.79" letter-spacing="0" class="B C D E F"><tspan x="3.8" y="4.02">1</tspan></text><text xml:space="preserve" x="5.22" y="287.8" letter-spacing="0" class="B C D E H"><tspan x="5.22" y="4.03">3</tspan></text><text xml:space="preserve" x="6.7" y="287.8" letter-spacing="0" class="B C D E G"><tspan x="6.7" y="4.03">8</tspan></text><text xml:space="preserve" x="8.15" y="287.79" letter-spacing="0" class="B C D E G"><tspan x="8.15" y="4.02">7</tspan></text><text xml:space="preserve" x="9.59" y="287.8" letter-spacing="0" class="B C D E I"><tspan x="9.59" y="4.03">6</tspan></text><text y="289.22" x="12.4" xml:space="preserve" letter-spacing="0" class="B C D E F"><tspan x="12.4" y="5.45">1</tspan></text><text y="289.23" x="0.83" xml:space="preserve" letter-spacing="0" class="B C D E G"><tspan x="0.83" y="5.46">3</tspan></text><text y="289.22" x="11" xml:space="preserve" letter-spacing="0" class="B C D E F"><tspan x="11" y="5.45">5</tspan></text><text y="289.22" x="2.33" xml:space="preserve" letter-spacing="0" class="B C D E F"><tspan x="2.33" y="5.45">8</tspan></text><text y="289.22" x="3.8" xml:space="preserve" letter-spacing="0" class="B C D E F"><tspan x="3.8" y="5.45">7</tspan></text><text y="289.23" x="5.22" xml:space="preserve" letter-spacing="0" class="B C D E H"><tspan x="5.22" y="5.46">6</tspan></text><text y="289.23" x="6.7" xml:space="preserve" letter-spacing="0" class="B C D E G"><tspan x="6.7" y="5.46">9</tspan></text><text y="289.22" x="8.15" xml:space="preserve" letter-spacing="0" class="B C D E G"><tspan x="8.15" y="5.45">2</tspan></text><text y="289.23" x="9.59" xml:space="preserve" letter-spacing="0" class="B C D E I"><tspan x="9.59" y="5.46">4</tspan></text><text y="290.72" x="8.14" xml:space="preserve" letter-spacing="0" class="B C D E F"><tspan y="6.95" x="8.14">8</tspan></text><text y="290.73" x="9.52" xml:space="preserve" letter-spacing="0" class="B C D E G"><tspan y="6.96" x="9.52">2</tspan></text><text y="290.72" x="6.69" xml:space="preserve" letter-spacing="0" class="B C D E F"><tspan y="6.95" x="6.69">3</tspan></text><text y="290.72" x="11" xml:space="preserve" letter-spacing="0" class="B C D E F"><tspan y="6.95" x="11">6</tspan></text><text y="290.72" x="12.44" xml:space="preserve" letter-spacing="0" class="B C D E F"><tspan y="6.95" x="12.44">9</tspan></text><text y="290.73" x="0.87" xml:space="preserve" letter-spacing="0" class="B C D E H"><tspan y="6.96" x="0.87">1</tspan></text><text y="290.73" x="2.37" xml:space="preserve" letter-spacing="0" class="B C D E G"><tspan y="6.96" x="2.37">4</tspan></text><text y="290.72" x="3.79" xml:space="preserve" letter-spacing="0" class="B C D E G"><tspan y="6.95" x="3.79">5</tspan></text><text y="290.73" x="5.25" xml:space="preserve" letter-spacing="0" class="B C D E I"><tspan y="6.96" x="5.25">7</tspan></text><text xml:space="preserve" x="8.13" y="292.11" letter-spacing="0" class="B C D E F"><tspan y="8.34" x="8.13">4</tspan></text><text xml:space="preserve" x="9.51" y="292.13" letter-spacing="0" class="B C D E G"><tspan y="8.36" x="9.51">8</tspan></text><text xml:space="preserve" x="6.66" y="292.11" letter-spacing="0" class="B C D E F"><tspan y="8.34" x="6.66">1</tspan></text><text xml:space="preserve" x="10.99" y="292.11" letter-spacing="0" class="B C D E F"><tspan y="8.34" x="10.99">7</tspan></text><text xml:space="preserve" x="12.43" y="292.11" letter-spacing="0" class="B C D E F"><tspan y="8.34" x="12.43">3</tspan></text><text xml:space="preserve" x="0.87" y="292.13" letter-spacing="0" class="B C D E H"><tspan y="8.36" x="0.87">9</tspan></text><text xml:space="preserve" x="2.33" y="292.13" letter-spacing="0" class="B C D E G"><tspan y="8.36" x="2.33">2</tspan></text><text xml:space="preserve" x="3.81" y="292.11" letter-spacing="0" class="B C D E G"><tspan y="8.34" x="3.81">6</tspan></text><text xml:space="preserve" x="5.21" y="292.13" letter-spacing="0" class="B C D E I"><tspan y="8.36" x="5.21">5</tspan></text><text y="293.56" x="3.77" xml:space="preserve" letter-spacing="0" class="B C D E F"><tspan x="3.77" y="9.79">4</tspan></text><text y="293.57" x="5.21" xml:space="preserve" letter-spacing="0" class="B C D E G"><tspan x="5.21" y="9.8">8</tspan></text><text y="293.56" x="2.31" xml:space="preserve" letter-spacing="0" class="B C D E F"><tspan x="2.31" y="9.79">1</tspan></text><text y="293.56" x="6.65" xml:space="preserve" letter-spacing="0" class="B C D E F"><tspan x="6.65" y="9.79">7</tspan></text><text y="293.56" x="8.14" xml:space="preserve" letter-spacing="0" class="B C D E F"><tspan x="8.14" y="9.79">3</tspan></text><text y="293.57" x="9.58" xml:space="preserve" letter-spacing="0" class="B C D E H"><tspan x="9.58" y="9.8">9</tspan></text><text y="293.57" x="10.98" xml:space="preserve" letter-spacing="0" class="B C D E G"><tspan x="10.98" y="9.8">2</tspan></text><text y="293.56" x="12.42" xml:space="preserve" letter-spacing="0" class="B C D E G"><tspan x="12.42" y="9.79">6</tspan></text><text y="293.57" x="0.85" xml:space="preserve" letter-spacing="0" class="B C D E I"><tspan x="0.85" y="9.8">5</tspan></text><text y="295.06" x="3.81" xml:space="preserve" letter-spacing="0" class="B C D E F"><tspan y="11.29" x="3.81">2</tspan></text><text y="295.08" x="5.18" xml:space="preserve" letter-spacing="0" class="B C D E G"><tspan y="11.31" x="5.18">4</tspan></text><text y="295.06" x="2.29" xml:space="preserve" letter-spacing="0" class="B C D E F"><tspan y="11.29" x="2.29">9</tspan></text><text y="295.06" x="6.7" xml:space="preserve" letter-spacing="0" class="B C D E F"><tspan y="11.29" x="6.7">5</tspan></text><text y="295.06" x="8.14" xml:space="preserve" letter-spacing="0" class="B C D E F"><tspan y="11.29" x="8.14">1</tspan></text><text y="295.08" x="9.6" xml:space="preserve" letter-spacing="0" class="B C D E H"><tspan y="11.31" x="9.6">3</tspan></text><text y="295.08" x="11.05" xml:space="preserve" letter-spacing="0" class="B C D E G"><tspan y="11.31" x="11.05">8</tspan></text><text y="295.06" x="12.45" xml:space="preserve" letter-spacing="0" class="B C D E G"><tspan y="11.29" x="12.45">7</tspan></text><text y="295.08" x="0.85" xml:space="preserve" letter-spacing="0" class="B C D E I"><tspan y="11.31" x="0.85">6</tspan></text><text xml:space="preserve" x="3.8" y="296.51" letter-spacing="0" class="B C D E F"><tspan x="3.8" y="12.74">8</tspan></text><text xml:space="preserve" x="5.22" y="296.52" letter-spacing="0" class="B C D E G"><tspan x="5.22" y="12.75">2</tspan></text><text xml:space="preserve" x="2.33" y="296.51" letter-spacing="0" class="B C D E F"><tspan x="2.33" y="12.74">3</tspan></text><text xml:space="preserve" x="6.66" y="296.51" letter-spacing="0" class="B C D E F"><tspan x="6.66" y="12.74">6</tspan></text><text xml:space="preserve" x="8.1" y="296.51" letter-spacing="0" class="B C D E F"><tspan x="8.1" y="12.74">9</tspan></text><text xml:space="preserve" x="9.56" y="296.52" letter-spacing="0" class="B C D E H"><tspan x="9.56" y="12.75">1</tspan></text><text xml:space="preserve" x="11.01" y="296.52" letter-spacing="0" class="B C D E G"><tspan x="11.01" y="12.75">4</tspan></text><text xml:space="preserve" x="12.45" y="296.51" letter-spacing="0" class="B C D E G"><tspan x="12.45" y="12.74">5</tspan></text><text xml:space="preserve" x="0.89" y="296.52" letter-spacing="0" class="B C D E I"><tspan x="0.89" y="12.75">7</tspan></text></svg>