<svg xmlns="http://www.w3.org/2000/svg" width="50" height="50" viewBox="0 0 13.23 13.23"><style><![CDATA[.I{writing-mode:lr-tb}.J{font-family:Calibri}.K{word-spacing:0px}.L{text-anchor:middle}.M{font-size:1.058px}]]></style><path d="M.13.12h13v13h-13z" fill="#c2b97e" stroke="#000" stroke-width=".1"/><g fill="#ff0" stroke="#192855" stroke-width=".09"><path d="M3.07.1v13.08M1.6.1v13.08M7.43.1v13.08M5.97.1v13.08M11.8.1v13.08M10.33.1v13.08"/><path d="M.08 10.26h13.08M.08 11.72h13.08M.08 5.9h13.08M.08 7.35h13.08M.08 1.54h13.08M.08 3h13.08"/></g><g fill="#ffff20" stroke="#992f21" stroke-width=".159"><path d="M4.52.1v13.08M8.88.1v13.08"/><path d="M.08 8.73h13.08M.08 4.37h13.08"/></g><text letter-spacing="0" y="284.94" x="12.46" xml:space="preserve" class="I J K L M"><tspan y="1.17" x="12.46" class="I">8</tspan></text><text letter-spacing="0" y="284.95" x="0.81" xml:space="preserve" class="I J K L M"><tspan y="1.18" x="0.81" class="I">2</tspan></text><text letter-spacing="0" y="284.94" x="11.04" xml:space="preserve" class="I J K L M"><tspan y="1.17" x="11.04" class="I">3</tspan></text><text letter-spacing="0" y="284.94" x="2.33" xml:space="preserve" class="I J K L M"><tspan y="1.17" x="2.33" class="I">6</tspan></text><text letter-spacing="0" y="284.94" x="3.78" xml:space="preserve" class="I J K L M"><tspan y="1.17" x="3.78" class="I">9</tspan></text><text letter-spacing="0" y="284.95" x="5.21" xml:space="preserve" class="I J K L M"><tspan y="1.18" x="5.21" class="I">1</tspan></text><text letter-spacing="0" y="284.95" x="6.68" xml:space="preserve" class="I J K L M"><tspan y="1.18" x="6.68" class="I">4</tspan></text><text letter-spacing="0" y="284.94" x="8.1" xml:space="preserve" class="I J K L M"><tspan y="1.17" x="8.1" class="I">5</tspan></text><text letter-spacing="0" y="284.95" x="9.59" xml:space="preserve" class="I J K L M"><tspan y="1.18" x="9.59" class="I">7</tspan></text><text letter-spacing="0" xml:space="preserve" x="12.4" y="286.38" class="I J K L M"><tspan y="2.61" x="12.4" class="I">4</tspan></text><text letter-spacing="0" xml:space="preserve" x="0.83" y="286.39" class="I J K L M"><tspan y="2.62" x="0.83" class="I">8</tspan></text><text letter-spacing="0" xml:space="preserve" x="11" y="286.38" class="I J K L M"><tspan y="2.61" x="11" class="I">1</tspan></text><text letter-spacing="0" xml:space="preserve" x="2.33" y="286.38" class="I J K L M"><tspan y="2.61" x="2.33" class="I">7</tspan></text><text letter-spacing="0" xml:space="preserve" x="3.8" y="286.38" class="I J K L M"><tspan y="2.61" x="3.8" class="I">3</tspan></text><text letter-spacing="0" xml:space="preserve" x="5.22" y="286.39" class="I J K L M"><tspan y="2.62" x="5.22" class="I">9</tspan></text><text letter-spacing="0" xml:space="preserve" x="6.7" y="286.39" class="I J K L M"><tspan y="2.62" x="6.7" class="I">2</tspan></text><text letter-spacing="0" xml:space="preserve" x="8.15" y="286.38" class="I J K L M"><tspan y="2.61" x="8.15" class="I">6</tspan></text><text letter-spacing="0" xml:space="preserve" x="9.59" y="286.39" class="I J K L M"><tspan y="2.62" x="9.59" class="I">5</tspan></text><text letter-spacing="0" y="287.79" x="12.4" xml:space="preserve" class="I J K L M"><tspan y="4.02" x="12.4" class="I">2</tspan></text><text letter-spacing="0" y="287.8" x="0.83" xml:space="preserve" class="I J K L M"><tspan y="4.03" x="0.83" class="I">4</tspan></text><text letter-spacing="0" y="287.79" x="11" xml:space="preserve" class="I J K L M"><tspan y="4.02" x="11" class="I">9</tspan></text><text letter-spacing="0" y="287.79" x="2.33" xml:space="preserve" class="I J K L M"><tspan y="4.02" x="2.33" class="I">5</tspan></text><text letter-spacing="0" y="287.79" x="3.8" xml:space="preserve" class="I J K L M"><tspan y="4.02" x="3.8" class="I">1</tspan></text><text letter-spacing="0" y="287.8" x="5.22" xml:space="preserve" class="I J K L M"><tspan y="4.03" x="5.22" class="I">3</tspan></text><text letter-spacing="0" y="287.8" x="6.7" xml:space="preserve" class="I J K L M"><tspan y="4.03" x="6.7" class="I">8</tspan></text><text letter-spacing="0" y="287.79" x="8.15" xml:space="preserve" class="I J K L M"><tspan y="4.02" x="8.15" class="I">7</tspan></text><text letter-spacing="0" y="287.8" x="9.59" xml:space="preserve" class="I J K L M"><tspan y="4.03" x="9.59" class="I">6</tspan></text><text letter-spacing="0" xml:space="preserve" x="12.4" y="289.22" class="I J K L M"><tspan y="5.45" x="12.4" class="I">1</tspan></text><text letter-spacing="0" xml:space="preserve" x="0.83" y="289.23" class="I J K L M"><tspan y="5.46" x="0.83" class="I">3</tspan></text><text letter-spacing="0" xml:space="preserve" x="11" y="289.22" class="I J K L M"><tspan y="5.45" x="11" class="I">5</tspan></text><text letter-spacing="0" xml:space="preserve" x="2.33" y="289.22" class="I J K L M"><tspan y="5.45" x="2.33" class="I">8</tspan></text><text letter-spacing="0" xml:space="preserve" x="3.8" y="289.22" class="I J K L M"><tspan y="5.45" x="3.8" class="I">7</tspan></text><text letter-spacing="0" xml:space="preserve" x="5.22" y="289.23" class="I J K L M"><tspan y="5.46" x="5.22" class="I">6</tspan></text><text letter-spacing="0" xml:space="preserve" x="6.7" y="289.23" class="I J K L M"><tspan y="5.46" x="6.7" class="I">9</tspan></text><text letter-spacing="0" xml:space="preserve" x="8.15" y="289.22" class="I J K L M"><tspan y="5.45" x="8.15" class="I">2</tspan></text><text letter-spacing="0" xml:space="preserve" x="9.59" y="289.23" class="I J K L M"><tspan y="5.46" x="9.59" class="I">4</tspan></text><text letter-spacing="0" xml:space="preserve" x="8.14" y="290.72" class="I J K L M"><tspan x="8.14" y="6.95" class="I">8</tspan></text><text letter-spacing="0" xml:space="preserve" x="9.52" y="290.73" class="I J K L M"><tspan x="9.52" y="6.96" class="I">2</tspan></text><text letter-spacing="0" xml:space="preserve" x="6.69" y="290.72" class="I J K L M"><tspan x="6.69" y="6.95" class="I">3</tspan></text><text letter-spacing="0" xml:space="preserve" x="11" y="290.72" class="I J K L M"><tspan x="11" y="6.95" class="I">6</tspan></text><text letter-spacing="0" xml:space="preserve" x="12.44" y="290.72" class="I J K L M"><tspan x="12.44" y="6.95" class="I">9</tspan></text><text letter-spacing="0" xml:space="preserve" x="0.87" y="290.73" class="I J K L M"><tspan x="0.87" y="6.96" class="I">1</tspan></text><text letter-spacing="0" xml:space="preserve" x="2.37" y="290.73" class="I J K L M"><tspan x="2.37" y="6.96" class="I">4</tspan></text><text letter-spacing="0" xml:space="preserve" x="3.79" y="290.72" class="I J K L M"><tspan x="3.79" y="6.95" class="I">5</tspan></text><text letter-spacing="0" xml:space="preserve" x="5.25" y="290.73" class="I J K L M"><tspan x="5.25" y="6.96" class="I">7</tspan></text><text letter-spacing="0" y="292.11" x="8.13" xml:space="preserve" class="I J K L M"><tspan x="8.13" y="8.34" class="I">4</tspan></text><text letter-spacing="0" y="292.13" x="9.51" xml:space="preserve" class="I J K L M"><tspan x="9.51" y="8.36" class="I">8</tspan></text><text letter-spacing="0" y="292.11" x="6.66" xml:space="preserve" class="I J K L M"><tspan x="6.66" y="8.34" class="I">1</tspan></text><text letter-spacing="0" y="292.11" x="10.99" xml:space="preserve" class="I J K L M"><tspan x="10.99" y="8.34" class="I">7</tspan></text><text letter-spacing="0" y="292.11" x="12.43" xml:space="preserve" class="I J K L M"><tspan x="12.43" y="8.34" class="I">3</tspan></text><text letter-spacing="0" y="292.13" x="0.87" xml:space="preserve" class="I J K L M"><tspan x="0.87" y="8.36" class="I">9</tspan></text><text letter-spacing="0" y="292.13" x="2.33" xml:space="preserve" class="I J K L M"><tspan x="2.33" y="8.36" class="I">2</tspan></text><text letter-spacing="0" y="292.11" x="3.81" xml:space="preserve" class="I J K L M"><tspan x="3.81" y="8.34" class="I">6</tspan></text><text letter-spacing="0" y="292.13" x="5.21" xml:space="preserve" class="I J K L M"><tspan x="5.21" y="8.36" class="I">5</tspan></text><text letter-spacing="0" xml:space="preserve" x="3.77" y="293.56" class="I J K L M"><tspan y="9.79" x="3.77" class="I">4</tspan></text><text letter-spacing="0" xml:space="preserve" x="5.21" y="293.57" class="I J K L M"><tspan y="9.8" x="5.21" class="I">8</tspan></text><text letter-spacing="0" xml:space="preserve" x="2.31" y="293.56" class="I J K L M"><tspan y="9.79" x="2.31" class="I">1</tspan></text><text letter-spacing="0" xml:space="preserve" x="6.65" y="293.56" class="I J K L M"><tspan y="9.79" x="6.65" class="I">7</tspan></text><text letter-spacing="0" xml:space="preserve" x="8.14" y="293.56" class="I J K L M"><tspan y="9.79" x="8.14" class="I">3</tspan></text><text letter-spacing="0" xml:space="preserve" x="9.58" y="293.57" class="I J K L M"><tspan y="9.8" x="9.58" class="I">9</tspan></text><text letter-spacing="0" xml:space="preserve" x="10.98" y="293.57" class="I J K L M"><tspan y="9.8" x="10.98" class="I">2</tspan></text><text letter-spacing="0" xml:space="preserve" x="12.42" y="293.56" class="I J K L M"><tspan y="9.79" x="12.42" class="I">6</tspan></text><text letter-spacing="0" xml:space="preserve" x="0.85" y="293.57" class="I J K L M"><tspan y="9.8" x="0.85" class="I">5</tspan></text><text letter-spacing="0" xml:space="preserve" x="3.81" y="295.06" class="I J K L M"><tspan x="3.81" y="11.29" class="I">2</tspan></text><text letter-spacing="0" xml:space="preserve" x="5.18" y="295.08" class="I J K L M"><tspan x="5.18" y="11.31" class="I">4</tspan></text><text letter-spacing="0" xml:space="preserve" x="2.29" y="295.06" class="I J K L M"><tspan x="2.29" y="11.29" class="I">9</tspan></text><text letter-spacing="0" xml:space="preserve" x="6.7" y="295.06" class="I J K L M"><tspan x="6.7" y="11.29" class="I">5</tspan></text><text letter-spacing="0" xml:space="preserve" x="8.14" y="295.06" class="I J K L M"><tspan x="8.14" y="11.29" class="I">1</tspan></text><text letter-spacing="0" xml:space="preserve" x="9.6" y="295.08" class="I J K L M"><tspan x="9.6" y="11.31" class="I">3</tspan></text><text letter-spacing="0" xml:space="preserve" x="11.05" y="295.08" class="I J K L M"><tspan x="11.05" y="11.31" class="I">8</tspan></text><text letter-spacing="0" xml:space="preserve" x="12.45" y="295.06" class="I J K L M"><tspan x="12.45" y="11.29" class="I">7</tspan></text><text letter-spacing="0" xml:space="preserve" x="0.85" y="295.08" class="I J K L M"><tspan x="0.85" y="11.31" class="I">6</tspan></text><text letter-spacing="0" y="296.51" x="3.8" xml:space="preserve" class="I J K L M"><tspan y="12.74" x="3.8" class="I">8</tspan></text><text letter-spacing="0" y="296.52" x="5.22" xml:space="preserve" class="I J K L M"><tspan y="12.75" x="5.22" class="I">2</tspan></text><text letter-spacing="0" y="296.51" x="2.33" xml:space="preserve" class="I J K L M"><tspan y="12.74" x="2.33" class="I">3</tspan></text><text letter-spacing="0" y="296.51" x="6.66" xml:space="preserve" class="I J K L M"><tspan y="12.74" x="6.66" class="I">6</tspan></text><text letter-spacing="0" y="296.51" x="8.1" xml:space="preserve" class="I J K L M"><tspan y="12.74" x="8.1" class="I">9</tspan></text><text letter-spacing="0" y="296.52" x="9.56" xml:space="preserve" class="I J K L M"><tspan y="12.75" x="9.56" class="I">1</tspan></text><text letter-spacing="0" y="296.52" x="11.01" xml:space="preserve" class="I J K L M"><tspan y="12.75" x="11.01" class="I">4</tspan></text><text letter-spacing="0" y="296.51" x="12.45" xml:space="preserve" class="I J K L M"><tspan y="12.74" x="12.45" class="I">5</tspan></text><text letter-spacing="0" y="296.52" x="0.89" xml:space="preserve" class="I J K L M"><tspan y="12.75" x="0.89" class="I">7</tspan></text></svg>