<svg xmlns="http://www.w3.org/2000/svg" height="155" width="155"><style><![CDATA[.B{fill:#46c258}.C{stroke-width:.4}.D{stroke:#ec2e32}.E{stroke-width:1}.F{fill:#4a3827}.G{stroke:#4a3827}.H{stroke:#f3f274}.I{stroke:#46c258}.J{stroke-width:.402}]]></style><path d="M154.8 74.8H80.2V.2h74.6z" class="C F G"/><g class="B D E"><path d="M154.8 25.48H80.2m74.6 24.866H80.2"/><path d="M130.176.2v74.6M105.3.2v74.6"/></g><g class="C"><g fill="none" class="H"><path d="M154.8 8.903H80.2m74.6 8.287H80.2m74.6 16.578H80.2m74.6 8.29H80.2m74.6 16.577H80.2m74.6 8.29H80.2"/><path d="M146.753.2v74.6M138.464.2v74.6M121.887.2v74.6M113.598.2v74.6M97.02.2v74.6M88.733.2v74.6"/></g><path d="M.2 154.725h74.525V80.2H.2z" class="F G"/></g><g class="B D E"><path d="M0 104.974h74.925M0 129.95h74.925"/><path d="M24.975 80v74.925M49.95 80v74.925"/></g><g fill="none" class="C H"><path d="M0 88.74h74.925M0 97.065h74.925M0 113.716h74.925M0 122.04h74.925M0 138.69h74.925M0 147.012h74.925"/><path d="M8.092 80v74.925M16.418 80v74.925M33.067 80v74.925M41.39 80v74.925M58.042 80v74.925M66.364 80v74.925"/></g><path d="M70.568 154.873l4.157-.148.084-3.9-71.172-70.69L.2 80.2l.062 4.396z" stroke-width=".25" class="B I"/><g class="C"><path d="M74.8 74.8H.2V.2h74.6z" class="F G"/><g fill="none" class="H"><path d="M74.8 8.903H.2M74.8 17.2H.2m74.6 16.578H.2m74.6 8.29H.2m74.6 16.577H.2m74.6 8.29H.2"/><path d="M66.753.2v74.6M58.464.2v74.6M41.887.2v74.6M33.598.2v74.6M17.02.2v74.6M8.733.2v74.6"/></g><path d="M74.64 7.478H.436V1.4H74.64zm0 8.29H.436V9.7H74.64zm0 8.288H.436v-6.067H74.64zm0 8.29H.436v-6.067H74.64zm0 8.288H.436v-6.067H74.64zm0 8.288H.436v-6.067H74.64zm0 8.28H.436v-6.067H74.64zm0 8.298H.436V59.43H74.64zm0 8.29H.436V67.72H74.64z" class="B I"/></g><g class="B D E"><path d="M74.8 25.066H.2m74.6 24.867H.2"/><path d="M49.933.2v74.6M25.067.2v74.6"/></g><g transform="matrix(.994 0 0 -.994 80.25 154.74945)" class="J"><path d="M0 0h75v75H0z" class="F G"/><g fill="none" class="H"><path d="M0 66.25h75M0 57.917h75M0 41.25h75M0 32.918h75M0 16.252h75M0 7.92h75"/><path d="M8.1 75V0m8.334 75V0M33.1 75V0m8.332 75V0M58.1 75V0m8.33 75V0"/></g></g><g class="D"><g fill="#ec2e32" class="E"><path d="M80.25 105.05h74.55M80.25 129.9h74.55"/><path d="M105.1 80.2v74.55m24.85-74.55v74.55"/></g><path d="M80.25 154.75h24.353v-24.353H80.25zm24.85 0h24.353v-24.353H105.1zm24.85 0h24.353v-24.353H129.95zm-49.7-24.85h24.353v-24.353H80.25zm24.85 0h24.353v-24.353H105.1zm24.85 0h24.353v-24.353H129.95zm-49.7-24.85h24.353V80.696H80.25zm24.85 0h24.353V80.696H105.1zm24.85 0h24.353V80.696H129.95z" stroke-width=".5" class="B"/></g><g class="I B"><path d="M74.873 84.442l-.148-4.157-3.9-.084-70.69 71.172.063 3.438 4.396-.062z" stroke-width=".25"/><path d="M147.9 74.8V.2h6.1v74.6zm-8.333 0V.2h6.1v74.6zm-8.333 0V.2h6.1v74.6zm-8.334 0V.2h6.1v74.6zm-8.332 0V.2h6.1v74.6zm-8.333 0V.2h6.1v74.6zm-8.333 0V.2h6.1v74.6zm-8.332 0V.2h6.1v74.6zm-8.334 0V.2h6.1v74.6z" class="C"/></g><g fill="#ec2e32" class="D E"><path d="M154.8 25.066H80.2m74.6 24.867H80.2"/><path d="M129.933.2v74.6M105.067.2v74.6"/></g></svg>