<svg xmlns="http://www.w3.org/2000/svg" height="75" width="75"><g stroke-width=".4"><path d="M0 0h75v75H0z" fill="#4a3827" stroke="#4a3827"/><g fill="none" stroke="#f3f274"><path d="M0 66.25h75M0 57.917h75M0 41.25h75M0 32.918h75M0 16.252h75M0 7.92h75"/><path d="M8.1 75V0m8.334 75V0M33.1 75V0m8.332 75V0M58.1 75V0m8.33 75V0"/></g></g><g fill="#ec2e32" stroke="#ec2e32"><path d="M0 50h75M0 25h75"/><path d="M25 75V0m25 75V0"/></g><g><path d="M0 0h24.5v24.5H0zm25 0h24.5v24.5H25zm25 0h24.5v24.5H50zM0 25h24.5v24.5H0zm25 0h24.5v24.5H25zm25 0h24.5v24.5H50zM0 50h24.5v24.5H0zm25 0h24.5v24.5H25zm25 0h24.5v24.5H50z" fill="#46c258" stroke="#ec2e32" stroke-width=".5"/><animate attributeType="CSS" attributeName="opacity" from="0" to="1" dur="3s" repeatCount="indefinite"/></g></svg>